<?xml version="1.0" encoding="utf-8"?>
<!-- Generator: Adobe Illustrator 26.0.1, SVG Export Plug-In . SVG Version: 6.00 Build 0)  -->
<svg version="1.1" id="Layer_1" xmlns="http://www.w3.org/2000/svg" xmlns:xlink="http://www.w3.org/1999/xlink" x="0px" y="0px"
	 viewBox="0 0 602 335" style="enable-background:new 0 0 602 335;" xml:space="preserve">
<style type="text/css">
	.st0{fill:#231F20;}
	.st1{fill:#80BC00;}
	.st2{fill:#006548;}
</style>
<g>
	<path class="st0" d="M410.5,244.25l-21.82-0.03c0,0-1.7,0.07-1.78-1.97l0.01-56.88c0-2.75-0.17-3.87-4.21-3.87h-9.03
		c-4.04,0-4.22,1.12-4.22,3.87v68.15c0,5.6,1.53,6.91,6.79,6.91h34.26c2.77,0,3.87-0.16,3.87-3.93v-8.33
		C414.36,244.39,413.26,244.25,410.5,244.25"/>
	<path class="st0" d="M480.47,217.55c3.67-2.18,9.17-8.23,9.17-16.14c0-0.46,0-0.93-0.04-1.39c-0.63-11.19-8.79-18.53-21.5-18.53
		h-25.12c-4.04,0-4.21,1.12-4.21,3.9v71.13c0,2.78,0.17,3.91,4.21,3.91h26.18c18.83,0,26.72-10.99,26.72-23.26
		C495.88,227.53,489.83,219.41,480.47,217.55 M456.24,196.85h7.97c5.05,0,7.97,2.5,7.97,7.27c0,4.79-3.03,7.26-7.97,7.26h-7.97
		V196.85z M467.23,244.87h-10.99v-15.83h10.99c5.17,0,10.56,2.05,10.56,7.93C477.79,242.83,473.04,244.87,467.23,244.87"/>
	<path class="st0" d="M541.01,197.75h21.35c2.71,0,3.87-0.17,3.87-3.93v-8.41c0-3.76-1.15-3.91-3.87-3.91l-36.64-0.03
		c-2.75,0-3.87,0.17-3.87,4.2v70.55c0,4.05,1.11,4.21,3.87,4.21h36.64c2.71,0,3.87-0.16,3.87-3.93v-8.33c0-3.77-1.15-3.91-3.87-3.91
		l-21.35-0.03c0,0-1.61,0.07-1.72-1.89v-12.69c0.07-1.44,0.93-1.74,1.4-1.81h16.96c2.73,0,3.87-0.2,3.87-3.95v-6.82
		c0-3.76-1.14-3.91-3.87-3.91l-16.74,0.01c0,0-1.52,0.07-1.63-1.88v-11.64C539.39,197.7,541.01,197.75,541.01,197.75"/>
	<path class="st0" d="M210.81,260.41c4.07,0,4.22-1.11,4.22-3.86l-0.01-22.57c0,0-0.01-0.87,0.49-0.98
		c0.62-0.16,1.07,0.58,1.07,0.58l21.54,24.98c0.92,1.04,1.57,1.89,3.59,1.89c0.03,0.01,18.36,0,18.36,0c2.19,0,2.73-1.13,0.89-3.68
		l-31.47-34.45c0,0-0.57-0.63-0.57-1.44c0-0.83,0.6-1.4,0.6-1.4l30.09-34.99c1.27-1.84,0.74-2.98-1.45-2.98h-16.57
		c-2.01,0-2.66,0.84-3.58,1.88l-21.89,24.85c0,0-0.28,0.5-0.74,0.36c-0.34-0.1-0.34-0.67-0.34-0.67l0.01-22.54
		c0-2.77-0.16-3.89-4.22-3.89h-9.08c-4.07,0-4.26,1.12-4.26,3.89v71.16c0,2.75,0.18,3.86,4.26,3.86H210.81z"/>
	<path class="st1" d="M126.99,260.82c-1.65-1.04-1.47-4.45-1.98-6.26c-12.4-43.37-77.87-58.3-67.73-107.56
		c1.16-5.48,2.14-11.44,5.94-16.74c1.12-1.56,5.1-3.7,3.19,2.62c-3.32,10.85-2.73,21.88,8.48,35.13
		c5.55,6.55,14.93,12.85,28.82,22.2c26.89,18.11,30.09,50.68,28.68,62.26C131.84,257.78,130.93,263.34,126.99,260.82"/>
	<path class="st2" d="M82.48,68.23c1.14,4.64,4.34,11.29,12.98,16.58c13.63,8.39,19.43,14.55,21.59,16.76
		c15.95,16.34,14.11,31.32,9.91,47.42c-1.55,3.71,0.3,7.62,4.65,0.83c4.88-7.59,7.67-11.65,9.8-20.73
		c2.62-11.3,3.55-26.5-15.06-41.55c-3.92-3.18-8.02-5.88-18.09-9.39C106.37,77.5,95.92,73.89,86.91,67
		C83.86,64.66,81.63,64.86,82.48,68.23"/>
	<path class="st2" d="M125.87,63.69c0.75,1.53,0.59,3.48,0.07,5.21c-0.76,2.49-1.88,4.43-4.45,5.12c-1.47,0.39-3.5,0.43-5.09-0.03
		c-4.43-1.23-6.43-5.14-5.24-9.1c1.16-3.96,5.1-6.48,9.52-5.29C123.19,60.32,124.9,61.65,125.87,63.69"/>
	<path class="st2" d="M73.23,213.3c-18.83,20.18-21.78,42.63-18.91,63.69c0.64,4.89,1.15,9.7,1.21,12.17
		c0.06,2.96-3.27,4.26-5.38,1.19c-7.48-10.85-12.32-23.55-13.24-30.5c-2.6-19.91,1.48-41.9,20.43-61.32
		c6.03-6.16,10.79-9.65,19.29-14.75c5.65-3.39,27.6-11,34.71-14.02c10.93-4.62,19.49-11.01,23.77-16c2.84-3.31,5.03-2.56,3.12,2.39
		c-4,10.51-14.09,23.23-28.27,32.51C97.07,197.04,78.47,207.68,73.23,213.3"/>
	<path class="st2" d="M83.62,152.37c-0.92,2.02-1.17,4.77-0.53,7.03c0.94,3.27,2.83,5.59,6.01,6.5c1.87,0.52,4.37,0.54,6.39-0.04
		c5.52-1.57,8.03-6.66,6.53-11.87c-1.47-5.18-6.38-8.47-11.89-6.88C86.97,147.98,84.85,149.72,83.62,152.37"/>
	<path class="st1" d="M73.65,137.89c15.84-28.76,71.13-28.84,72.91-72.58c0.13-3.14,0.19-6.59-0.82-10.1
		c-0.54-1.97-2.65-3.63-3.31,0.39c-1.55,9.24-8.3,26.79-37.22,40.78c-24.5,11.84-33.48,28.05-35.41,38.93
		C68.59,142.15,72.19,140.54,73.65,137.89"/>
	<path class="st0" d="M319.82,227.94c-0.24,0.34-0.94,0.31-0.94,0.31h-15.22c0,0-0.68-0.05-0.95-0.36
		c-0.28-0.31-0.07-0.95-0.07-0.95l3.26-10.07l4.98-14.74c0,0,0.18-0.42,0.44-0.42c0.31,0,0.43,0.42,0.43,0.42l8.07,24.85
		C319.82,226.98,320.07,227.6,319.82,227.94 M348.28,256.68l-26.87-71.39c-1.27-2.65-1.57-3.8-5.61-3.8h-9.12
		c-4.03,0-4.35,1.15-5.61,3.8l-26.87,71.39c-0.94,2.54-1.59,3.76,1.49,3.76h11.48c4.2,0.03,4.18,0.23,5.23-2.34l4.47-13.04
		c0,0,0.12-0.47,0.55-0.72c0.3-0.2,0.94-0.2,0.94-0.2h25.74c0,0,0.64,0,0.94,0.2c0.43,0.25,0.55,0.72,0.55,0.72l4.47,13.04
		c1.06,2.57,1.03,2.37,5.23,2.34h11.48C349.86,260.44,349.21,259.22,348.28,256.68"/>
</g>
</svg>
